<svg width="19" height="19" viewBox="0 0 19 19" fill="none" xmlns="http://www.w3.org/2000/svg">
<circle cx="9.8075" cy="9.08978" r="9.00061" fill="#799DB2" fill-opacity="0.2"/>
<path d="M11.8081 10.0221C11.1675 10.0221 10.8594 10.3606 9.80811 10.3606C8.75677 10.3606 8.45096 10.0221 7.80811 10.0221C6.15186 10.0221 4.80811 11.2958 4.80811 12.8658V13.4075C4.80811 13.9682 5.28802 14.4231 5.87953 14.4231H13.7367C14.3282 14.4231 14.8081 13.9682 14.8081 13.4075V12.8658C14.8081 11.2958 13.4644 10.0221 11.8081 10.0221ZM13.7367 13.4075H5.87953V12.8658C5.87953 11.8587 6.74561 11.0377 7.80811 11.0377C8.134 11.0377 8.66302 11.3762 9.80811 11.3762C10.9621 11.3762 11.48 11.0377 11.8081 11.0377C12.8706 11.0377 13.7367 11.8587 13.7367 12.8658V13.4075ZM9.80811 9.68353C11.5827 9.68353 13.0224 8.31879 13.0224 6.63666C13.0224 4.95453 11.5827 3.58978 9.80811 3.58978C8.03355 3.58978 6.59382 4.95453 6.59382 6.63666C6.59382 8.31879 8.03355 9.68353 9.80811 9.68353ZM9.80811 4.60541C10.9889 4.60541 11.951 5.51735 11.951 6.63666C11.951 7.75596 10.9889 8.66791 9.80811 8.66791C8.6273 8.66791 7.66525 7.75596 7.66525 6.63666C7.66525 5.51735 8.6273 4.60541 9.80811 4.60541Z" fill="#7C8798"/>
</svg>
